<svg width="210" height="40" viewBox="0 0 210 40" fill="none" xmlns="http://www.w3.org/2000/svg">
<path d="M135.828 19.6686C134.855 19.1808 133.582 18.7894 132.005 18.4943C130.975 18.2978 130.161 18.0762 129.563 17.8306C128.963 17.5859 128.533 17.294 128.275 16.9586C128.015 16.6231 127.885 16.215 127.885 15.7317C127.885 14.9633 128.182 14.3599 128.777 13.9208C129.37 13.4832 130.258 13.2641 131.436 13.2641C132.212 13.2641 132.899 13.3507 133.497 13.5242C134.096 13.7 134.66 13.9479 135.187 14.2701C135.443 14.404 135.658 14.5025 135.836 14.5644C136.01 14.628 136.192 14.6589 136.376 14.6589C136.764 14.6589 137.094 14.5149 137.366 14.2236C137.64 13.9331 137.777 13.5908 137.777 13.1966C137.777 12.8929 137.708 12.6288 137.571 12.405C137.435 12.1812 137.231 11.9806 136.958 11.8024C135.47 10.8096 133.629 10.3137 131.436 10.3137C130.143 10.3137 128.994 10.5368 127.99 10.9846C126.986 11.4314 126.204 12.0696 125.64 12.903C125.076 13.7334 124.794 14.6991 124.794 15.7982C124.794 16.8538 125.01 17.7415 125.442 18.4603C125.872 19.1808 126.556 19.7818 127.489 20.265C128.421 20.7476 129.664 21.1449 131.212 21.4587C132.234 21.6646 133.057 21.887 133.683 22.1285C134.307 22.3694 134.778 22.6654 135.095 23.0138C135.412 23.3631 135.57 23.787 135.57 24.2887C135.57 25.1461 135.244 25.7968 134.587 26.239C133.932 26.6813 132.964 26.9036 131.688 26.9036C130.712 26.9036 129.869 26.7804 129.159 26.5341C128.451 26.2886 127.748 25.9464 127.053 25.5079C126.851 25.3746 126.659 25.2732 126.479 25.2074C126.299 25.1401 126.102 25.1066 125.892 25.1066C125.478 25.1066 125.132 25.2446 124.854 25.5225C124.577 25.7991 124.438 26.1484 124.438 26.5674C124.438 27.1669 124.707 27.6495 125.245 28.0158C126.045 28.5612 126.968 29.0026 128.011 29.3379C129.054 29.6726 130.28 29.8398 131.688 29.8398C133.105 29.8398 134.34 29.6059 135.393 29.1365C136.445 28.6671 137.252 28.0035 137.816 27.1445C138.379 26.2862 138.661 25.2988 138.661 24.181C138.661 23.1254 138.432 22.2323 137.974 21.498C137.517 20.7654 136.802 20.1558 135.828 19.6686Z" fill="#F8BE09"/>
<path d="M146.826 10.3137C146.351 10.3137 145.975 10.4648 145.698 10.7678C145.419 11.0709 145.282 11.4844 145.282 12.0082V28.116C145.282 28.6406 145.419 29.0556 145.698 29.3579C145.975 29.6608 146.351 29.8112 146.826 29.8112C147.301 29.8112 147.676 29.6608 147.949 29.3579C148.222 29.0556 148.358 28.6406 148.358 28.116V12.0082C148.358 11.4844 148.222 11.0709 147.949 10.7678C147.676 10.4648 147.301 10.3137 146.826 10.3137Z" fill="#F8BE09"/>
<path d="M165.719 26.8352H157.887V12.0208C157.887 11.4924 157.75 11.0763 157.478 10.7717C157.205 10.4667 156.831 10.3137 156.355 10.3137C155.88 10.3137 155.504 10.4667 155.227 10.7717C154.949 11.0763 154.81 11.4924 154.81 12.0208V27.4361C154.81 28.2104 155.006 28.798 155.398 29.2031C155.79 29.6101 156.355 29.8112 157.095 29.8112H165.719C166.194 29.8112 166.571 29.6771 166.848 29.4082C167.126 29.14 167.263 28.7736 167.263 28.309C167.263 27.854 167.126 27.4953 166.848 27.2303C166.571 26.9668 166.194 26.8352 165.719 26.8352Z" fill="#F8BE09"/>
<path d="M190.24 25.5141C189.949 26.0273 189.542 26.422 189.019 26.6954C188.494 26.9726 187.893 27.1092 187.217 27.1092C185.904 27.1092 184.951 26.6421 184.357 25.7056C183.764 24.7713 183.47 23.4224 183.479 21.6619C183.981 21.2949 184.558 21.0057 185.21 20.7969C185.86 20.5847 186.55 20.4799 187.282 20.4799C188.348 20.4799 189.179 20.7698 189.78 21.3521C190.377 21.9351 190.676 22.7169 190.676 23.698C190.676 24.3956 190.531 25.0001 190.24 25.5141ZM190.954 18.4923C190.056 17.983 188.987 17.7281 187.745 17.7281C186.996 17.7281 186.264 17.8401 185.546 18.0656C184.827 18.2895 184.178 18.6044 183.598 19.007C183.73 17.6502 184.056 16.5585 184.574 15.7332C185.094 14.9078 185.849 14.3009 186.84 13.9117C187.831 13.5217 189.101 13.3253 190.65 13.3253C191.126 13.3253 191.501 13.1911 191.779 12.9202C192.056 12.651 192.195 12.2855 192.195 11.827C192.195 11.3599 192.056 10.9915 191.779 10.7196C191.501 10.4503 191.126 10.3137 190.65 10.3137C187.225 10.3137 184.666 11.1932 182.978 12.9473C181.287 14.7054 180.441 17.3744 180.441 20.9606C180.441 23.8316 180.981 26.0717 182.06 27.6804C183.137 29.2891 184.856 30.0939 187.217 30.0939C188.564 30.0939 189.725 29.8142 190.701 29.2556C191.68 28.6957 192.424 27.9323 192.934 26.9655C193.445 25.997 193.7 24.9086 193.7 23.698C193.7 22.5429 193.466 21.5143 193.001 20.6095C192.533 19.7061 191.851 18.9998 190.954 18.4923Z" fill="#F8BE09"/>
<path d="M209.337 10.7613C209.069 10.4625 208.693 10.3137 208.209 10.3137C207.954 10.3137 207.696 10.3669 207.437 10.4695C207.176 10.5743 206.857 10.7298 206.479 10.9381L201.367 13.7278C200.717 14.0813 200.392 14.5408 200.392 15.1112C200.392 15.3733 200.452 15.6119 200.575 15.8286C200.699 16.0447 200.862 16.2168 201.064 16.3437C201.267 16.4697 201.474 16.533 201.685 16.533C202.045 16.533 202.416 16.429 202.794 16.2215L206.677 14.1346V28.1579C206.677 28.6734 206.814 29.0779 207.092 29.3707C207.37 29.6641 207.742 29.8112 208.209 29.8112C208.676 29.8112 209.047 29.6641 209.325 29.3707C209.602 29.0779 209.741 28.6734 209.741 28.1579V12.0351C209.741 11.4834 209.607 11.0601 209.337 10.7613Z" fill="#F8BE09"/>
<path d="M110.236 21.3092H108.663C108.21 21.3092 107.853 21.4327 107.593 21.6775C107.33 21.9238 107.201 22.2565 107.201 22.6775C107.201 23.0993 107.33 23.4301 107.593 23.6727C107.853 23.913 108.21 24.0343 108.663 24.0343H110.236C110.688 24.0343 111.045 23.913 111.305 23.6727C111.567 23.4301 111.697 23.0993 111.697 22.6775C111.697 22.2565 111.567 21.9238 111.305 21.6775C111.045 21.4327 110.688 21.3092 110.236 21.3092Z" fill="#F8BE09"/>
<path d="M112.605 12.9143C112.278 11.9882 111.863 11.3131 111.356 10.8962C110.851 10.4778 110.218 10.2679 109.462 10.2679C108.704 10.2679 108.075 10.4778 107.573 10.8962C107.071 11.3131 106.658 11.9882 106.331 12.9143L101.168 27.2601C101.045 27.6303 100.984 27.9397 100.984 28.1922C100.984 28.6061 101.125 28.9561 101.407 29.2438C101.688 29.5331 102.045 29.6771 102.476 29.6771C103.223 29.6771 103.734 29.2578 104.008 28.4214L105.553 23.8602H105.559L106.504 21.0797L107.018 19.5676L107.043 19.4943L109.078 13.5074C109.123 13.3819 109.171 13.2945 109.224 13.2456C109.277 13.1948 109.348 13.1705 109.435 13.1705C109.523 13.1705 109.594 13.1948 109.646 13.2456C109.699 13.2945 109.747 13.3819 109.792 13.5074L111.798 19.3775L114.72 27.903L114.903 28.4347C115.167 29.264 115.672 29.6771 116.421 29.6771C116.851 29.6771 117.209 29.5331 117.491 29.2438C117.772 28.9561 117.914 28.6061 117.914 28.1922C117.914 27.9038 117.851 27.5936 117.729 27.2601L112.605 12.9143Z" fill="#F8BE09"/>
<path d="M93.8023 26.9069L89.9181 21.9834C90.7653 21.7655 91.4958 21.394 92.1123 20.8738C92.727 20.3525 93.1983 19.7212 93.5193 18.9807C93.8396 18.2392 94.002 17.425 94.002 16.5402C94.002 15.3306 93.758 14.256 93.2736 13.3173C92.7909 12.3747 92.0854 11.6396 91.1612 11.1082C90.2361 10.5757 89.1408 10.3137 87.8725 10.3137H82.4721C81.723 10.3137 81.1565 10.5165 80.769 10.9211C80.3794 11.33 80.1857 11.9216 80.1857 12.6994V28.1806C80.1857 28.7121 80.3243 29.1328 80.5967 29.4402C80.8705 29.7449 81.2433 29.8987 81.7209 29.8987C82.1937 29.8987 82.5689 29.7449 82.8482 29.4402C83.1256 29.1328 83.2629 28.7121 83.2629 28.1806V26.0246V22.6686V19.7061V13.3014H87.6354C88.7099 13.3014 89.5237 13.5881 90.0774 14.1607C90.6327 14.7311 90.9103 15.5241 90.9103 16.5402C90.9103 17.5272 90.6297 18.3017 90.0721 18.8641C89.5146 19.4266 88.7001 19.7054 87.6376 19.7061H87.4614C86.994 19.7061 86.6264 19.8392 86.3565 20.1015C86.0878 20.3628 85.9522 20.7215 85.9522 21.1723C85.9522 21.5534 86.0543 21.8606 86.2449 22.1037H86.2358L87.0283 23.1358L91.5159 28.9798C91.7484 29.2714 91.9811 29.5018 92.2251 29.6697C92.4677 29.8416 92.7421 29.9263 93.051 29.9263C93.4653 29.9263 93.8083 29.7902 94.0792 29.5208C94.3515 29.2499 94.4901 28.9029 94.4901 28.4697C94.4901 28.2242 94.4322 27.9747 94.3172 27.7221C94.2043 27.4741 94.0303 27.2 93.8023 26.9069Z" fill="#F8BE09"/>
<path d="M69.7917 26.0781C69.2897 26.5681 68.5629 26.8134 67.6126 26.8134H62.5546V23.5384V21.1204V17.7353H62.5676V13.3105H67.2687C68.2015 13.3105 68.9009 13.5314 69.3683 13.9713C69.8351 14.4119 70.0684 15.0575 70.0684 15.9096C70.0684 16.7347 69.8351 17.3788 69.3683 17.8418C68.9009 18.3055 68.2015 18.5365 67.2687 18.5365H67.0316H66.9034H65.5977C65.1867 18.5365 64.8609 18.6533 64.6238 18.8869C64.3859 19.1187 64.2675 19.4347 64.2675 19.8341C64.2675 20.2336 64.3859 20.548 64.6238 20.7775C64.8609 21.006 65.1867 21.1221 65.5977 21.1221H67.0316C67.0323 21.1221 67.0338 21.1204 67.0346 21.1204H67.6126C68.5629 21.1204 69.2897 21.3706 69.7917 21.871C70.2919 22.3704 70.5444 23.0835 70.5444 24.0087C70.5444 24.898 70.2919 25.5881 69.7917 26.0781ZM70.8076 19.7197V19.6777C71.5388 19.3107 72.1178 18.7771 72.544 18.0752C72.9712 17.3747 73.1854 16.5148 73.1854 15.4975C73.1854 14.4335 72.9712 13.5123 72.544 12.7332C72.1178 11.9544 71.503 11.3571 70.7023 10.9401C69.9014 10.5225 68.9458 10.3137 67.8362 10.3137H61.7882C61.04 10.3137 60.4696 10.5185 60.0783 10.9258C59.6862 11.3332 59.4902 11.928 59.4902 12.7061V27.4194C59.4902 28.1985 59.6862 28.7907 60.0783 29.1997C60.4696 29.6071 61.04 29.8112 61.7882 29.8112H67.9955C69.087 29.8112 70.0639 29.6022 70.9265 29.1863C71.7899 28.7693 72.4671 28.1539 72.9597 27.3432C73.4532 26.5307 73.7002 25.5587 73.7002 24.4216C73.7002 23.1932 73.4304 22.171 72.8887 21.3557C72.3473 20.5393 71.6526 19.9938 70.8076 19.7197Z" fill="#F8BE09"/>
<path d="M46.3661 36.4837C46.3661 38.2884 44.8896 39.7647 43.0851 39.7647C41.2805 39.7647 39.8041 38.2884 39.8041 36.4837V3.5056C39.8041 1.70105 41.2805 0.224609 43.0851 0.224609C44.8896 0.224609 46.3661 1.70105 46.3661 3.5056V36.4837Z" fill="#F8BE09"/>
<path d="M33.242 32.8215C33.242 34.6028 31.7845 36.0602 30.003 36.0602H29.9189C28.1374 36.0602 26.68 34.6028 26.68 32.8215V7.16227C26.68 5.38094 28.1374 3.92334 29.9189 3.92334H30.003C31.7845 3.92334 33.242 5.38094 33.242 7.16227V32.8215Z" fill="#D9D8D6"/>
<path d="M20.1179 29.0402C20.1179 30.7744 18.699 32.1931 16.9648 32.1931H16.709C14.9748 32.1931 13.5559 30.7744 13.5559 29.0402V10.9491C13.5559 9.21509 14.9748 7.79602 16.709 7.79602H16.9648C18.699 7.79602 20.1179 9.21509 20.1179 10.9491V29.0402Z" fill="#D9D8D6"/>
<path d="M6.9938 25.4533C6.9938 27.1227 5.6279 28.4886 3.9583 28.4886H3.46733C1.79772 28.4886 0.431824 27.1227 0.431824 25.4533V14.5303C0.431824 12.8607 1.79772 11.4948 3.46733 11.4948H3.9583C5.6279 11.4948 6.9938 12.8607 6.9938 14.5303V25.4533Z" fill="#D9D8D6"/>
</svg>
